<?xml version="1.0" encoding="UTF-8"?>
<svg width="68px" height="30px" viewBox="0 0 68 30" version="1.1" xmlns="http://www.w3.org/2000/svg" xmlns:xlink="http://www.w3.org/1999/xlink">
    <title>Group</title>
    <g id="Page-1" stroke="none" stroke-width="1" fill="none" fill-rule="evenodd">
        <g id="Group">
            <rect id="Rectangle" fill="#00B3A0" x="0" y="0" width="68" height="30" rx="2"></rect>
            <path d="M15.24,21.82 L15.24,18.74 L17.46,16.78 C17.46,16.7708108 18.447962,17.8340248 19.5160291,18.9861303 L20.0839709,19.5989683 C21.152038,20.7518188 22.14,21.82 22.14,21.82 L27,21.82 C27,21.82 21.2,15.02 20.28,14.2 L26.82,8.5 L21.88,8.5 L15.24,14.74 L15.24,8.5 L11,8.5 L11,21.82 L15.24,21.82 Z M43.2,21.82 L43.2,18.62 L33.3,18.62 L33.3,8.5 L29.06,8.5 L29.06,21.82 L43.2,21.82 Z M53.44,22.32 C56.56,22.32 59.1,21.24 60.56,19.8 L58.62,17.42 C57.6,18.34 55.82,19.22 53.84,19.22 C50.86,19.22 49.12,17.46 49.12,15.28 L49.12,15.12 C49.12,12.92 50.86,11.12 53.74,11.12 C55.82,11.12 57.48,11.9 58.58,12.92 L60.68,10.56 C59.26,9.08 56.56,8 53.5,8 C48.32,8 44.8,11.26 44.8,15.06 L44.8,15.34 C44.8,19.14 48.18,22.32 53.44,22.32 Z" id="KLC" fill="#FF5000" fill-rule="nonzero"></path>
        </g>
    </g>
</svg>