<?xml version="1.0" encoding="UTF-8"?>
<svg width="398px" height="272px" viewBox="0 0 398 272" version="1.1" xmlns="http://www.w3.org/2000/svg" xmlns:xlink="http://www.w3.org/1999/xlink">
    <title>KRISTOPHERLEECARGILE</title>
    <g id="Page-1" stroke="none" stroke-width="1" fill="none" fill-rule="evenodd">
        <path d="M16.2,135 L16.2,100.8 L19.6,81 L24.8,135 L40.4,135 L29.8,58.8 L40,1.8 L25.2,1.8 L16.2,61 L16.2,1.8 L0.6,1.8 L0.6,135 L16.2,135 Z M59.1,135 L59.1,77.8 L62.9,77.8 C65.1,77.8 66.3,80 66.3,83 L66.3,114.4 C66.3,116.553846 66.4325444,119.332544 66.6859809,122.147656 L66.7518519,122.851852 C67.3444444,128.955556 68.5,135 70.1,135 L83.7,135 L83.7,134.4 C82.7,128 81.7,121.2 81.7,112.8 L81.7,84.4 C81.7,78 78.3,74 74.1,70.6 C78.3,67 81.3,63 81.3,56.8 L81.3,22.8 C81.3,5.8 71.5,1.8 63.7,1.8 L43.5,1.8 L43.5,135 L59.1,135 Z M63.1,62.6 L59.1,62.6 L59.1,17.8 L63.1,17.8 C64.9,17.8 65.9,19.4 65.9,23.2 L65.9,57.2 C65.9,61.2 64.9,62.6 63.1,62.6 Z M103,135 L103,1.8 L87.4,1.8 L87.4,135 L103,135 Z M127.1,136.6 C135.1,136.6 146.9,131.8 146.9,111 C146.9,97 140.7,79.8 133.5,62.8 C126.1,45.2 123.1,39.8 123.1,22.2 C123.1,18.2 125.3,16.2 128.3,16.2 C131.1,16.2 132.9,18.2 132.9,22.2 L132.9,42.4 L146.3,42.4 L146.3,24.6 C146.3,8 139.1,0.2 128.3,0.2 C113.9,0.2 107.5,11.2 107.5,26.6 C107.5,40.4 116.1,61.4 121.9,75 C128.7,90.6 131.7,101.2 131.7,114.6 C131.7,118.8 129.9,121.6 126.3,121.6 C122.3,121.6 120.7,118.8 120.7,114.6 L120.7,96 L107.3,96 L107.3,112.2 C107.3,128 114.7,136.6 127.1,136.6 Z M174.6,135 L174.6,18.8 L186.2,18.8 L186.2,1.8 L147.4,1.8 L147.4,18.8 L159,18.8 L159,135 L174.6,135 Z M206.7,136.6 C217.7,136.6 226.5,127.4 226.5,113.8 L226.5,23 C226.5,9.6 217.7,0.2 206.7,0.2 C195.9,0.2 186.9,9.6 186.9,23 L186.9,113.8 C186.9,127.4 195.9,136.6 206.7,136.6 Z M206.7,119.8 C204.1,119.8 202.7,118 202.7,115 L202.7,21.8 C202.7,18.8 204.1,17 206.7,17 C209.3,17 210.7,18.8 210.7,21.8 L210.7,115 C210.7,118 209.3,119.8 206.7,119.8 Z M248.2,135 L248.2,81.4 L252.8,81.4 C260.6,81.4 270.4,77.4 270.4,60.4 L270.4,22.8 C270.4,5.8 260.6,1.8 252.8,1.8 L232.6,1.8 L232.6,135 L248.2,135 Z M252.4,66.6 L248.2,66.6 L248.2,17.8 L252.4,17.8 C254.2,17.8 255.2,19.4 255.2,23.2 L255.2,61.4 C255.2,65.2 254.2,66.6 252.4,66.6 Z M290.9,135 L290.9,77.8 L299.1,77.8 L299.1,135 L314.5,135 L314.5,1.8 L299.1,1.8 L299.1,61 L290.9,61 L290.9,1.8 L275.3,1.8 L275.3,135 L290.9,135 Z M353.6,135 L353.6,119 L336.8,119 L336.8,74.4 L348.2,74.4 L348.2,58.4 L336.8,58.4 L336.8,17.8 L353.6,17.8 L353.6,1.8 L321.4,1.8 L321.4,135 L353.6,135 Z M373.3,135 L373.3,77.8 L377.1,77.8 C379.3,77.8 380.5,80 380.5,83 L380.5,114.4 C380.5,116.553846 380.632544,119.332544 380.885981,122.147656 L380.951852,122.851852 C381.544444,128.955556 382.7,135 384.3,135 L397.9,135 L397.9,134.4 C396.9,128 395.9,121.2 395.9,112.8 L395.9,84.4 C395.9,78 392.5,74 388.3,70.6 C392.5,67 395.5,63 395.5,56.8 L395.5,22.8 C395.5,5.8 385.7,1.8 377.9,1.8 L357.7,1.8 L357.7,135 L373.3,135 Z M377.3,62.6 L373.3,62.6 L373.3,17.8 L377.3,17.8 C379.1,17.8 380.1,19.4 380.1,23.2 L380.1,57.2 C380.1,61.2 379.1,62.6 377.3,62.6 Z M31.8,270 L31.8,254.6 L16,254.6 L16,136.8 L0.6,136.8 L0.6,270 L31.8,270 Z M66.9,270 L66.9,254 L50.1,254 L50.1,209.4 L61.5,209.4 L61.5,193.4 L50.1,193.4 L50.1,152.8 L66.9,152.8 L66.9,136.8 L34.7,136.8 L34.7,270 L66.9,270 Z M103.2,270 L103.2,254 L86.4,254 L86.4,209.4 L97.8,209.4 L97.8,193.4 L86.4,193.4 L86.4,152.8 L103.2,152.8 L103.2,136.8 L71,136.8 L71,270 L103.2,270 Z M142,271.6 C153.6,271.6 159.8,262.4 159.8,248.8 L159.8,223.2 L146.8,223.2 L146.8,249.4 C146.8,252.4 145.6,254.8 142.2,254.8 C138.8,254.8 137.6,252.4 137.6,249.4 L137.6,157.4 C137.6,154.4 138.8,152 142.2,152 C145.6,152 146.8,154.4 146.8,157.4 L146.8,183.4 L159.8,183.4 L159.8,158 C159.8,144.6 153.6,135.2 142,135.2 C131.2,135.2 121.8,144.6 121.8,158 L121.8,248.8 C121.8,262.4 131.2,271.6 142,271.6 Z M173.3,270 L174.9,245.8 L184.1,245.8 L185.1,270 L201.1,270 L188.9,136.8 L171.5,136.8 L159.5,270 L173.3,270 Z M183.1,228.8 L176.3,228.8 L180.3,170 L183.1,228.8 Z M219.4,270 L219.4,212.8 L223.2,212.8 C225.4,212.8 226.6,215 226.6,218 L226.6,249.4 C226.6,251.553846 226.732544,254.332544 226.985981,257.147656 L227.051852,257.851852 C227.644444,263.955556 228.8,270 230.4,270 L244,270 L244,269.4 C243,263 242,256.2 242,247.8 L242,219.4 C242,213 238.6,209 234.4,205.6 C238.6,202 241.6,198 241.6,191.8 L241.6,157.8 C241.6,140.8 231.8,136.8 224,136.8 L203.8,136.8 L203.8,270 L219.4,270 Z M223.4,197.6 L219.4,197.6 L219.4,152.8 L223.4,152.8 C225.2,152.8 226.2,154.4 226.2,158.2 L226.2,192.2 C226.2,196.2 225.2,197.6 223.4,197.6 Z M263.9,271.6 C268.1,271.6 272.3,269.6 274.5,265 L275.9,270 L285.5,270 L285.5,205 L266.5,205 L266.5,219.2 L270.1,219.2 L270.1,251.6 C270.1,254.6 268.5,256.6 265.9,256.6 C263.3,256.6 261.7,254.6 261.7,251.6 L261.7,156.8 C261.7,153.8 263.5,152 265.9,152 C268.7,152 270.3,153.8 270.3,156.8 L270.3,185.2 L284.3,185.2 L284.3,158 C284.3,144.6 276.5,135.2 265.7,135.2 C254.9,135.2 246.5,144.6 246.5,158 L246.5,248.8 C246.5,263.8 253.3,271.6 263.9,271.6 Z M306,270 L306,136.8 L290.4,136.8 L290.4,270 L306,270 Z M344.1,270 L344.1,254.6 L328.3,254.6 L328.3,136.8 L312.9,136.8 L312.9,270 L344.1,270 Z M379.2,270 L379.2,254 L362.4,254 L362.4,209.4 L373.8,209.4 L373.8,193.4 L362.4,193.4 L362.4,152.8 L379.2,152.8 L379.2,136.8 L347,136.8 L347,270 L379.2,270 Z" id="KRISTOPHERLEECARGILE" fill="#E1E1E1" fill-rule="nonzero"></path>
    </g>
</svg>