<?xml version="1.0" encoding="UTF-8"?>
<svg width="797px" height="137px" viewBox="0 0 797 137" version="1.1" xmlns="http://www.w3.org/2000/svg" xmlns:xlink="http://www.w3.org/1999/xlink">
    <title>KRISTOPHERLEECARGILE</title>
    <g id="Page-1" stroke="none" stroke-width="1" fill="none" fill-rule="evenodd">
        <path d="M16.2,135 L16.2,100.8 L19.6,81 L24.8,135 L40.4,135 L29.8,58.8 L40,1.8 L25.2,1.8 L16.2,61 L16.2,1.8 L0.6,1.8 L0.6,135 L16.2,135 Z M59.1,135 L59.1,77.8 L62.9,77.8 C65.1,77.8 66.3,80 66.3,83 L66.3,114.4 C66.3,116.553846 66.4325444,119.332544 66.6859809,122.147656 L66.7518519,122.851852 C67.3444444,128.955556 68.5,135 70.1,135 L83.7,135 L83.7,134.4 C82.7,128 81.7,121.2 81.7,112.8 L81.7,84.4 C81.7,78 78.3,74 74.1,70.6 C78.3,67 81.3,63 81.3,56.8 L81.3,22.8 C81.3,5.8 71.5,1.8 63.7,1.8 L43.5,1.8 L43.5,135 L59.1,135 Z M63.1,62.6 L59.1,62.6 L59.1,17.8 L63.1,17.8 C64.9,17.8 65.9,19.4 65.9,23.2 L65.9,57.2 C65.9,61.2 64.9,62.6 63.1,62.6 Z M103,135 L103,1.8 L87.4,1.8 L87.4,135 L103,135 Z M127.1,136.6 C135.1,136.6 146.9,131.8 146.9,111 C146.9,97 140.7,79.8 133.5,62.8 C126.1,45.2 123.1,39.8 123.1,22.2 C123.1,18.2 125.3,16.2 128.3,16.2 C131.1,16.2 132.9,18.2 132.9,22.2 L132.9,42.4 L146.3,42.4 L146.3,24.6 C146.3,8 139.1,0.2 128.3,0.2 C113.9,0.2 107.5,11.2 107.5,26.6 C107.5,40.4 116.1,61.4 121.9,75 C128.7,90.6 131.7,101.2 131.7,114.6 C131.7,118.8 129.9,121.6 126.3,121.6 C122.3,121.6 120.7,118.8 120.7,114.6 L120.7,96 L107.3,96 L107.3,112.2 C107.3,128 114.7,136.6 127.1,136.6 Z M174.6,135 L174.6,18.8 L186.2,18.8 L186.2,1.8 L147.4,1.8 L147.4,18.8 L159,18.8 L159,135 L174.6,135 Z M206.7,136.6 C217.7,136.6 226.5,127.4 226.5,113.8 L226.5,23 C226.5,9.6 217.7,0.2 206.7,0.2 C195.9,0.2 186.9,9.6 186.9,23 L186.9,113.8 C186.9,127.4 195.9,136.6 206.7,136.6 Z M206.7,119.8 C204.1,119.8 202.7,118 202.7,115 L202.7,21.8 C202.7,18.8 204.1,17 206.7,17 C209.3,17 210.7,18.8 210.7,21.8 L210.7,115 C210.7,118 209.3,119.8 206.7,119.8 Z M248.2,135 L248.2,81.4 L252.8,81.4 C260.6,81.4 270.4,77.4 270.4,60.4 L270.4,22.8 C270.4,5.8 260.6,1.8 252.8,1.8 L232.6,1.8 L232.6,135 L248.2,135 Z M252.4,66.6 L248.2,66.6 L248.2,17.8 L252.4,17.8 C254.2,17.8 255.2,19.4 255.2,23.2 L255.2,61.4 C255.2,65.2 254.2,66.6 252.4,66.6 Z M290.9,135 L290.9,77.8 L299.1,77.8 L299.1,135 L314.5,135 L314.5,1.8 L299.1,1.8 L299.1,61 L290.9,61 L290.9,1.8 L275.3,1.8 L275.3,135 L290.9,135 Z M353.6,135 L353.6,119 L336.8,119 L336.8,74.4 L348.2,74.4 L348.2,58.4 L336.8,58.4 L336.8,17.8 L353.6,17.8 L353.6,1.8 L321.4,1.8 L321.4,135 L353.6,135 Z M373.3,135 L373.3,77.8 L377.1,77.8 C379.3,77.8 380.5,80 380.5,83 L380.5,114.4 C380.5,116.553846 380.632544,119.332544 380.885981,122.147656 L380.951852,122.851852 C381.544444,128.955556 382.7,135 384.3,135 L397.9,135 L397.9,134.4 C396.9,128 395.9,121.2 395.9,112.8 L395.9,84.4 C395.9,78 392.5,74 388.3,70.6 C392.5,67 395.5,63 395.5,56.8 L395.5,22.8 C395.5,5.8 385.7,1.8 377.9,1.8 L357.7,1.8 L357.7,135 L373.3,135 Z M377.3,62.6 L373.3,62.6 L373.3,17.8 L377.3,17.8 C379.1,17.8 380.1,19.4 380.1,23.2 L380.1,57.2 C380.1,61.2 379.1,62.6 377.3,62.6 Z M448.7,135 L448.7,119.6 L432.9,119.6 L432.9,1.8 L417.5,1.8 L417.5,135 L448.7,135 Z M483.8,135 L483.8,119 L467,119 L467,74.4 L478.4,74.4 L478.4,58.4 L467,58.4 L467,17.8 L483.8,17.8 L483.8,1.8 L451.6,1.8 L451.6,135 L483.8,135 Z M520.1,135 L520.1,119 L503.3,119 L503.3,74.4 L514.7,74.4 L514.7,58.4 L503.3,58.4 L503.3,17.8 L520.1,17.8 L520.1,1.8 L487.9,1.8 L487.9,135 L520.1,135 Z M558.9,136.6 C570.5,136.6 576.7,127.4 576.7,113.8 L576.7,88.2 L563.7,88.2 L563.7,114.4 C563.7,117.4 562.5,119.8 559.1,119.8 C555.7,119.8 554.5,117.4 554.5,114.4 L554.5,22.4 C554.5,19.4 555.7,17 559.1,17 C562.5,17 563.7,19.4 563.7,22.4 L563.7,48.4 L576.7,48.4 L576.7,23 C576.7,9.6 570.5,0.2 558.9,0.2 C548.1,0.2 538.7,9.6 538.7,23 L538.7,113.8 C538.7,127.4 548.1,136.6 558.9,136.6 Z M590.2,135 L591.8,110.8 L601,110.8 L602,135 L618,135 L605.8,1.8 L588.4,1.8 L576.4,135 L590.2,135 Z M600,93.8 L593.2,93.8 L597.2,35 L600,93.8 Z M636.3,135 L636.3,77.8 L640.1,77.8 C642.3,77.8 643.5,80 643.5,83 L643.5,114.4 C643.5,116.553846 643.632544,119.332544 643.885981,122.147656 L643.951852,122.851852 C644.544444,128.955556 645.7,135 647.3,135 L660.9,135 L660.9,134.4 C659.9,128 658.9,121.2 658.9,112.8 L658.9,84.4 C658.9,78 655.5,74 651.3,70.6 C655.5,67 658.5,63 658.5,56.8 L658.5,22.8 C658.5,5.8 648.7,1.8 640.9,1.8 L620.7,1.8 L620.7,135 L636.3,135 Z M640.3,62.6 L636.3,62.6 L636.3,17.8 L640.3,17.8 C642.1,17.8 643.1,19.4 643.1,23.2 L643.1,57.2 C643.1,61.2 642.1,62.6 640.3,62.6 Z M680.8,136.6 C685,136.6 689.2,134.6 691.4,130 L692.8,135 L702.4,135 L702.4,70 L683.4,70 L683.4,84.2 L687,84.2 L687,116.6 C687,119.6 685.4,121.6 682.8,121.6 C680.2,121.6 678.6,119.6 678.6,116.6 L678.6,21.8 C678.6,18.8 680.4,17 682.8,17 C685.6,17 687.2,18.8 687.2,21.8 L687.2,50.2 L701.2,50.2 L701.2,23 C701.2,9.6 693.4,0.2 682.6,0.2 C671.8,0.2 663.4,9.6 663.4,23 L663.4,113.8 C663.4,128.8 670.2,136.6 680.8,136.6 Z M722.9,135 L722.9,1.8 L707.3,1.8 L707.3,135 L722.9,135 Z M761,135 L761,119.6 L745.2,119.6 L745.2,1.8 L729.8,1.8 L729.8,135 L761,135 Z M796.1,135 L796.1,119 L779.3,119 L779.3,74.4 L790.7,74.4 L790.7,58.4 L779.3,58.4 L779.3,17.8 L796.1,17.8 L796.1,1.8 L763.9,1.8 L763.9,135 L796.1,135 Z" id="KRISTOPHERLEECARGILE" fill="#E1E1E1" fill-rule="nonzero"></path>
    </g>
</svg>